<svg width="24" height="24" viewBox="0 0 24 24" fill="none" xmlns="http://www.w3.org/2000/svg">
<path fill-rule="evenodd" clip-rule="evenodd" d="M13.5138 3.80552C14.5869 2.73077 16.3274 2.73011 17.4014 3.80405L19.8932 6.2959C20.958 7.36068 20.9691 9.08444 19.918 10.1628L10.6849 19.6361C9.97936 20.3599 9.0117 20.7681 8.00126 20.7681L5.07067 20.768C3.88874 20.7679 2.94484 19.7826 2.99455 18.6009L3.05282 17.2157L3.11108 15.8305L3.12021 15.6134C3.15971 14.6744 3.54999 13.7844 4.21382 13.1195L6.27277 11.0575C6.56544 10.7644 7.04014 10.7642 7.33303 11.0571C7.62593 11.35 7.6261 11.825 7.33343 12.1181L5.27448 14.1802C4.87618 14.5791 4.64201 15.1131 4.61832 15.6765L4.60918 15.8936L4.55092 17.2788L4.49266 18.664C4.47882 18.993 4.74164 19.2674 5.07073 19.2674L8.00133 19.2675C8.60759 19.2675 9.18818 19.0226 9.6115 18.5883L16.1442 11.8857L14.3557 10.0972C14.0628 9.80427 14.0628 9.3294 14.3557 9.03651C14.6485 8.74361 15.1234 8.74361 15.4163 9.03651L17.1912 10.8114L18.8446 9.11505C19.3224 8.62488 19.3174 7.84136 18.8334 7.35737L16.3415 4.86551C15.8534 4.37736 15.0622 4.37766 14.5744 4.86618L10.2181 9.22905C9.92547 9.52217 9.45078 9.52235 9.15788 9.22946C8.86499 8.93656 8.86481 8.46151 9.15748 8.16839L13.5138 3.80552ZM20.5148 20.6948C20.9289 20.6948 21.2646 20.3589 21.2646 19.9445C21.2646 19.5301 20.9289 19.1942 20.5148 19.1942H14.3931C13.9791 19.1942 13.6434 19.5301 13.6434 19.9445C13.6434 20.3589 13.9791 20.6948 14.3931 20.6948H20.5148Z" fill="white"/>
</svg>
